<svg fill="#228BE6" xmlns="http://www.w3.org/2000/svg"  viewBox="0 0 100 100" width="24px" height="24px"><path d="M 31 17 C 23.27961 17 17 23.27961 17 31 L 17 69 C 17 76.72039 23.27961 83 31 83 L 69 83 C 76.72039 83 83 76.72039 83 69 L 83 31 C 83 23.27961 76.72039 17 69 17 L 31 17 z M 31 19 L 69 19 C 75.63961 19 81 24.36039 81 31 L 81 69 C 81 75.63961 75.63961 81 69 81 L 31 81 C 24.36039 81 19 75.63961 19 69 L 19 31 C 19 24.36039 24.36039 19 31 19 z M 33.5 22 C 27.154767 22 22 27.154767 22 33.5 L 22 66.5 C 22 72.845233 27.154767 78 33.5 78 L 66.5 78 C 72.845233 78 78 72.845233 78 66.5 L 78 49.5 A 0.50005 0.50005 0 1 0 77 49.5 L 77 66.5 C 77 72.304767 72.304767 77 66.5 77 L 33.5 77 C 27.695233 77 23 72.304767 23 66.5 L 23 33.5 C 23 27.695233 27.695233 23 33.5 23 L 66.5 23 C 66.81729 23 67.134239 23.019658 67.455078 23.048828 A 0.5000688 0.5000688 0 1 0 67.544922 22.052734 C 67.205765 22.0219 66.85871 22 66.5 22 L 33.5 22 z M 44 31 C 36.826216 31 31 36.826221 31 44 C 31 51.173779 36.826216 57 44 57 C 47.227003 57 50.175237 55.813484 52.449219 53.863281 L 54.292969 55.707031 L 54.324219 55.675781 C 53.772895 56.796376 53.948887 58.191074 54.878906 59.121094 L 63.878906 68.121094 C 64.46254 68.704727 65.232917 69 66 69 C 66.767083 69 67.538242 68.705143 68.121094 68.121094 C 69.289217 66.954167 69.288923 65.046736 68.121094 63.878906 L 59.121094 54.878906 C 58.537961 54.294577 57.768983 54.003915 57 54.003906 C 56.5442 54.003902 56.092843 54.119341 55.675781 54.324219 L 55.707031 54.292969 L 53.863281 52.449219 C 55.813483 50.175237 57 47.227001 57 44 C 57 36.826221 51.173784 31 44 31 z M 44 32 C 50.633344 32 56 37.36666 56 44 C 56 50.63334 50.633344 56 44 56 C 37.366656 56 32 50.63334 32 44 C 32 37.36666 37.366656 32 44 32 z M 44 34 C 38.483071 34 34 38.483075 34 44 C 34 49.516925 38.483071 54 44 54 C 49.516929 54 54 49.516925 54 44 C 54 38.483075 49.516929 34 44 34 z M 44 35 C 48.976489 35 53 39.023515 53 44 C 53 48.976485 48.976489 53 44 53 C 39.023511 53 35 48.976485 35 44 C 35 39.023515 39.023511 35 44 35 z M 77.492188 36.992188 A 0.50005 0.50005 0 0 0 77 37.5 L 77 39.5 A 0.50005 0.50005 0 1 0 78 39.5 L 78 37.5 A 0.50005 0.50005 0 0 0 77.492188 36.992188 z M 77.492188 41.992188 A 0.50005 0.50005 0 0 0 77 42.5 L 77 46.5 A 0.50005 0.50005 0 1 0 78 46.5 L 78 42.5 A 0.50005 0.50005 0 0 0 77.492188 41.992188 z M 57 54.998047 C 57.510767 54.998038 58.020242 55.193267 58.412109 55.585938 L 58.414062 55.585938 L 58.560547 55.732422 L 55.732422 58.560547 L 55.585938 58.414062 C 54.799766 57.627893 54.800059 56.37101 55.585938 55.585938 C 55.978305 55.19312 56.489233 54.998055 57 54.998047 z M 59.267578 56.439453 L 67.414062 64.585938 C 68.200233 65.372107 68.19994 66.628991 67.414062 67.414062 L 67.412109 67.414062 C 67.021008 67.806015 66.512917 68 66 68 C 65.487083 68 64.978303 67.806429 64.585938 67.414062 L 56.439453 59.267578 L 59.267578 56.439453 z"/></svg>